<svg width="57" height="57" viewBox="0 0 57 57" fill="none" xmlns="http://www.w3.org/2000/svg">
<path d="M47.0869 6.87565C47.5156 7.25506 47.9311 7.64411 48.3431 8.04175C48.4866 8.17708 48.6302 8.31242 48.7781 8.45185C53.9963 13.5081 56.8586 20.8568 56.9988 28.0783C57.0659 35.8839 54.2618 43.0795 48.87 48.693C48.7274 48.8457 48.5847 48.9983 48.4378 49.1556C44.4776 53.2956 38.8571 56.0777 33.2387 57C32.891 57 32.5432 57 32.185 57C32.185 49.7093 32.185 42.4186 32.185 34.9069C34.2135 34.9069 36.2421 34.9069 38.3321 34.9069C38.3808 34.39 38.4294 33.873 38.4796 33.3404C38.5271 32.8402 38.5748 32.3401 38.6226 31.84C38.6557 31.4922 38.6886 31.1443 38.7212 30.7964C38.7681 30.2967 38.8159 29.797 38.8638 29.2974C38.8855 29.0637 38.8855 29.0637 38.9076 28.8253C38.9216 28.6803 38.9357 28.5352 38.9502 28.3858C38.9623 28.2582 38.9744 28.1307 38.9868 27.9993C39.0346 27.6604 39.0346 27.6604 39.2102 27.1302C36.8919 27.1302 34.5735 27.1302 32.185 27.1302C32.1705 26.248 32.156 25.3658 32.141 24.4569C32.1346 24.1805 32.1283 23.9041 32.1217 23.6194C32.1199 23.3995 32.1182 23.1797 32.1163 22.9532C32.1127 22.7292 32.109 22.5052 32.1052 22.2744C32.2002 21.5322 32.4136 21.1618 32.8875 20.5906C34.0417 19.8211 35.6196 19.9999 36.938 20.0272C37.6878 20.0382 38.4377 20.0491 39.2102 20.0604C39.1523 17.5524 39.0943 15.0444 39.0346 12.4604C37.3828 12.4494 37.3828 12.4494 35.6976 12.4383C35.3564 12.4351 35.0152 12.4318 34.6637 12.4285C31.2419 12.4095 27.8442 12.5385 25.2228 15.0321C22.9793 17.421 22.9729 20.944 22.9313 24.0261C22.9255 24.3291 22.9194 24.632 22.9132 24.935C22.8981 25.6667 22.8873 26.3983 22.8764 27.1302C21.3695 27.1302 19.8626 27.1302 18.31 27.1302C18.31 29.6965 18.31 32.2628 18.31 34.9069C19.8169 34.9069 21.3239 34.9069 22.8764 34.9069C22.8764 42.081 22.8764 49.2551 22.8764 56.6465C17.9221 56.0925 13.1831 53.5209 9.56682 50.118C9.21975 49.7933 8.86284 49.4922 8.49656 49.1901C3.6533 44.9156 0.660376 38.0891 0.0442671 31.7255C0.00278089 30.7318 0.00111906 29.7375 0.000359111 28.743C0.000240605 28.6041 0.000122098 28.4652 0 28.3222C0.00276427 26.2858 0.0773987 24.3417 0.571164 22.3581C0.599435 22.234 0.627707 22.1099 0.656836 21.9821C1.79965 17.0019 4.28793 12.6196 7.77208 8.92547C7.85826 8.83206 7.94443 8.73865 8.03321 8.64241C18.2876 -2.42556 35.8115 -2.69678 47.0869 6.87565Z" fill="black"/>
</svg>
