<svg width="61" height="61" viewBox="0 0 61 61" fill="none" xmlns="http://www.w3.org/2000/svg">
<path d="M44.4792 16.5208H44.5046M17.7917 5.08331H43.2083C50.2269 5.08331 55.9167 10.773 55.9167 17.7916V43.2083C55.9167 50.2269 50.2269 55.9166 43.2083 55.9166H17.7917C10.773 55.9166 5.08333 50.2269 5.08333 43.2083V17.7916C5.08333 10.773 10.773 5.08331 17.7917 5.08331ZM40.6667 28.8987C40.9803 31.014 40.619 33.1744 39.6341 35.0725C38.6492 36.9706 37.0909 38.5098 35.1808 39.4712C33.2707 40.4326 31.106 40.7673 28.9948 40.4276C26.8835 40.0878 24.9331 39.091 23.421 37.5789C21.9089 36.0668 20.9121 34.1165 20.5724 32.0052C20.2327 29.8939 20.5673 27.7293 21.5287 25.8192C22.4902 23.9091 24.0294 22.3507 25.9275 21.3658C27.8256 20.3809 29.986 20.0196 32.1012 20.3333C34.2589 20.6533 36.2565 21.6587 37.7989 23.2011C39.3413 24.7435 40.3467 26.741 40.6667 28.8987Z" stroke="black" stroke-width="4" stroke-linecap="round" stroke-linejoin="round"/>
</svg>
