<svg width="50" height="57" viewBox="0 0 50 57" fill="none" xmlns="http://www.w3.org/2000/svg">
<path d="M27.017 0C27.1893 0.000453076 27.3616 0.000906152 27.539 0.00137296C27.7337 0.00138837 27.9283 0.00140378 28.1289 0.00141966C28.3405 0.00247272 28.5521 0.00352579 28.7702 0.00461077C28.9857 0.00489947 29.2012 0.00518816 29.4233 0.00548561C30.1147 0.0066318 30.8061 0.00919353 31.4975 0.0117838C31.965 0.0128065 32.4325 0.0137376 32.9 0.0145733C34.0487 0.0168284 35.1975 0.020247 36.3462 0.0245358C36.4053 0.421221 36.4053 0.421221 36.4656 0.82592C36.5195 1.17727 36.5734 1.52862 36.6274 1.87995C36.666 2.14063 36.666 2.14063 36.7053 2.40657C37.2175 5.70422 39.0317 8.75792 41.7031 10.8127C44.2929 12.5605 46.8854 13.3875 50 13.6947C50 16.9266 50 20.1584 50 23.4882C44.753 23.1432 40.8857 21.9724 36.3462 19.4076C36.3482 19.8083 36.3482 19.8083 36.3504 20.2172C36.363 22.7444 36.3723 25.2717 36.3783 27.799C36.3816 29.0981 36.3859 30.3971 36.393 31.6961C36.3998 32.9516 36.4035 34.207 36.4051 35.4625C36.4062 35.9397 36.4084 36.4168 36.4118 36.8939C36.4492 42.4136 35.3677 46.9636 31.588 51.2366C31.4784 51.3618 31.3688 51.487 31.2559 51.616C28.4331 54.6131 23.9522 56.7652 19.7961 56.9495C19.4777 56.9688 19.4777 56.9688 19.1528 56.9886C14.7078 57.1344 10.4068 55.8889 6.96977 53.0729C6.79377 52.9301 6.61776 52.7873 6.43642 52.6401C3.45948 50.1139 1.49277 47.0357 0.556616 43.2794C0.510215 43.1076 0.463813 42.9359 0.416005 42.7589C-0.546455 38.5784 0.183569 33.6978 2.37325 30.0085C3.29064 28.5921 4.34573 27.3532 5.52164 26.1407C5.69965 25.9458 5.69965 25.9458 5.88125 25.7469C8.36211 23.1192 12.294 21.4662 15.8654 21.0398C16.6802 21.0115 17.494 21.0114 18.3092 21.0143C18.5288 21.0136 18.7484 21.0128 18.9746 21.012C19.1831 21.0122 19.3915 21.0125 19.6062 21.0127C19.7965 21.013 19.9869 21.0132 20.183 21.0134C20.6236 21.0398 20.6236 21.0398 20.8305 21.2439C20.8497 21.5508 20.8548 21.8586 20.854 22.1661C20.8539 22.4601 20.8539 22.4601 20.8539 22.7602C20.8528 22.9733 20.8518 23.1865 20.8507 23.4061C20.8504 23.6232 20.8501 23.8403 20.8498 24.064C20.8486 24.7605 20.846 25.4569 20.8434 26.1534C20.8424 26.6243 20.8414 27.0952 20.8406 27.5661C20.8383 28.7232 20.8348 29.8803 20.8305 31.0374C20.7002 31.0351 20.5699 31.0327 20.4357 31.0303C19.8389 31.021 19.2422 31.0152 18.6453 31.0095C18.4404 31.0058 18.2355 31.002 18.0243 30.9982C15.7863 30.9822 14.2133 31.5717 12.5554 33.0777C12.4189 33.0777 12.2824 33.0777 12.1417 33.0777C12.0838 33.1972 12.0259 33.3166 11.9663 33.4396C11.7439 33.8634 11.4962 34.24 11.2237 34.6335C10.031 36.5232 9.78552 38.5867 10.1699 40.7696C10.7616 42.9825 12.0262 44.7871 14.0125 45.982C16.0898 47.0639 18.4026 47.3176 20.6882 46.7224C22.9265 45.9443 24.598 44.3848 25.625 42.2903C26.0946 41.0808 26.2701 40.0219 26.2655 38.7266C26.2665 38.5614 26.2676 38.3962 26.2687 38.2259C26.2717 37.6754 26.2718 37.1249 26.2719 36.5743C26.2735 36.1784 26.2753 35.7825 26.2772 35.3867C26.281 34.5359 26.2835 33.6851 26.285 32.8343C26.2874 31.4903 26.2926 30.1462 26.2983 28.8022C26.3069 26.678 26.3136 24.5539 26.3195 22.4297C26.3301 18.6209 26.3429 14.8121 26.3578 11.0033C26.363 9.66577 26.367 8.32826 26.3701 6.99075C26.3722 6.16125 26.3751 5.33175 26.3783 4.50225C26.3796 4.11608 26.3805 3.7299 26.381 3.34372C26.3818 2.81895 26.3838 2.29419 26.3862 1.76943C26.3861 1.6146 26.386 1.45977 26.3859 1.30026C26.3939 0.0388045 26.3939 0.0388045 27.017 0Z" fill="black"/>
</svg>
